<?xml version="1.0" standalone="no"?>
<!DOCTYPE svg PUBLIC "-//W3C//DTD SVG 20010904//EN"
 "http://www.w3.org/TR/2001/REC-SVG-20010904/DTD/svg10.dtd">
<svg version="1.0" xmlns="http://www.w3.org/2000/svg"
 width="500.000000pt" height="500.000000pt" viewBox="0 0 500.000000 500.000000"
 preserveAspectRatio="xMidYMid meet">
<metadata>
Created by potrace 1.14, written by Peter Selinger 2001-2017
</metadata>
<g transform="translate(0.000000,500.000000) scale(0.100000,-0.100000)"
fill="#000000" stroke="none">
<path d="M1353 3990 c-62 -13 -150 -57 -189 -96 -45 -46 -92 -140 -110 -223
-10 -44 -18 -174 -24 -386 -5 -176 -13 -346 -19 -377 -27 -154 -118 -253 -254
-273 l-47 -7 0 -128 0 -127 50 -6 c101 -12 192 -84 226 -179 28 -77 34 -148
44 -468 10 -349 20 -425 72 -522 76 -143 199 -196 461 -198 l47 0 0 125 0 125
-76 0 c-42 0 -94 5 -116 12 -48 14 -94 64 -109 120 -6 24 -15 183 -20 363 -9
348 -17 412 -69 523 -37 80 -114 161 -191 202 l-61 32 51 28 c127 70 198 161
238 309 22 78 25 115 33 411 5 179 13 341 18 360 14 56 40 99 70 114 37 19
123 36 182 36 l50 0 0 120 0 120 -107 -1 c-60 -1 -127 -5 -150 -9z"/>
<path d="M3390 3880 l0 -120 48 0 c67 0 160 -18 189 -37 26 -17 56 -69 67
-117 4 -16 11 -174 16 -350 10 -350 19 -418 69 -521 35 -70 112 -150 194 -199
l59 -35 -50 -25 c-81 -41 -158 -119 -197 -200 -60 -124 -66 -167 -75 -526 -9
-348 -17 -405 -62 -447 -41 -37 -71 -46 -165 -51 l-93 -5 0 -125 0 -125 125 7
c192 10 293 55 364 163 67 101 91 240 91 538 0 212 13 384 35 461 30 105 127
188 235 201 l50 6 0 127 0 127 -42 7 c-95 15 -168 64 -214 142 -43 73 -54 156
-64 504 -13 424 -28 495 -127 601 -84 89 -170 119 -348 119 l-105 0 0 -120z"/>
<path d="M2160 3725 l0 -95 90 0 90 0 0 95 0 95 -90 0 -90 0 0 -95z"/>
<path d="M2610 3545 l0 -65 65 0 65 0 0 65 0 65 -65 0 -65 0 0 -65z"/>
<path d="M2840 3445 l0 -95 90 0 90 0 0 95 0 95 -90 0 -90 0 0 -95z"/>
<path d="M2950 3225 l0 -65 65 0 65 0 0 65 0 65 -65 0 -65 0 0 -65z"/>
<path d="M1580 3205 l0 -65 65 0 65 0 0 65 0 65 -65 0 -65 0 0 -65z"/>
<path d="M3290 3135 l0 -65 65 0 65 0 0 65 0 65 -65 0 -65 0 0 -65z"/>
<path d="M2540 3045 l0 -135 130 0 130 0 0 135 0 135 -130 0 -130 0 0 -135z"/>
<path d="M2230 2835 l0 -65 65 0 65 0 0 65 0 65 -65 0 -65 0 0 -65z"/>
<path d="M2940 2765 l0 -135 130 0 130 0 0 135 0 135 -130 0 -130 0 0 -135z"/>
<path d="M2970 2350 l0 -120 120 0 120 0 0 120 0 120 -120 0 -120 0 0 -120z"/>
<path d="M2470 2305 l0 -65 65 0 65 0 0 65 0 65 -65 0 -65 0 0 -65z"/>
<path d="M2670 2125 l0 -115 120 0 120 0 0 115 0 115 -120 0 -120 0 0 -115z"/>
<path d="M1680 2165 l0 -66 68 3 67 3 3 63 3 62 -71 0 -70 0 0 -65z"/>
<path d="M2010 2105 l0 -65 70 0 70 0 0 65 0 65 -70 0 -70 0 0 -65z"/>
<path d="M2310 2025 l0 -135 135 0 135 0 0 135 0 135 -135 0 -135 0 0 -135z"/>
<path d="M2350 1590 l0 -120 120 0 120 0 0 120 0 120 -120 0 -120 0 0 -120z"/>
<path d="M1910 1135 l0 -135 130 0 130 0 0 135 0 135 -130 0 -130 0 0 -135z"/>
<path d="M2270 1150 l0 -80 80 0 80 0 0 80 0 80 -80 0 -80 0 0 -80z"/>
</g>
</svg>
